<?xml version="1.0" encoding="UTF-8" standalone="no"?>
<!-- Created with Inkscape (http://www.inkscape.org/) -->

<svg
   xmlns:dc="http://purl.org/dc/elements/1.1/"
   xmlns:cc="http://creativecommons.org/ns#"
   xmlns:rdf="http://www.w3.org/1999/02/22-rdf-syntax-ns#"
   xmlns:svg="http://www.w3.org/2000/svg"
   xmlns="http://www.w3.org/2000/svg"
   xmlns:sodipodi="http://sodipodi.sourceforge.net/DTD/sodipodi-0.dtd"
   xmlns:inkscape="http://www.inkscape.org/namespaces/inkscape"
   width="297mm"
   height="210mm"
   viewBox="0 0 297 210"
   version="1.1"
   id="svg8"
   inkscape:version="0.92.4 (5da689c313, 2019-01-14)"
   sodipodi:docname="regis-img.svg"
   inkscape:export-filename="D:\Document\CODE\PKL\NewBiz\img\regis-img2.png"
   inkscape:export-xdpi="96"
   inkscape:export-ydpi="96">
  <defs
     id="defs2" />
  <sodipodi:namedview
     id="base"
     pagecolor="#ffffff"
     bordercolor="#666666"
     borderopacity="1.0"
     inkscape:pageopacity="0.0"
     inkscape:pageshadow="2"
     inkscape:zoom="0.70710678"
     inkscape:cx="555.15884"
     inkscape:cy="503.57149"
     inkscape:document-units="mm"
     inkscape:current-layer="layer1"
     showgrid="false"
     inkscape:snap-bbox="false"
     inkscape:window-width="1366"
     inkscape:window-height="745"
     inkscape:window-x="-8"
     inkscape:window-y="-8"
     inkscape:window-maximized="1" />
  <metadata
     id="metadata5">
    <rdf:RDF>
      <cc:Work
         rdf:about="">
        <dc:format>image/svg+xml</dc:format>
        <dc:type
           rdf:resource="http://purl.org/dc/dcmitype/StillImage" />
        <dc:title></dc:title>
      </cc:Work>
    </rdf:RDF>
  </metadata>
  <g
     inkscape:label="Layer 1"
     inkscape:groupmode="layer"
     id="layer1"
     transform="translate(0,-87)">
    <path
       style="opacity:0.5;fill:#0066ff;stroke-width:0.37417734"
       d="m 8.5931993,189.2113 c 0.926089,-0.0627 4.6304437,-0.29265 8.2319017,-0.511 27.367726,-1.65924 51.554086,-5.77413 70.641606,-12.01846 14.610603,-4.77973 26.801933,-11.00152 38.056873,-19.42212 6.92065,-5.17782 11.82751,-9.73537 22.59109,-20.98287 16.31237,-17.04574 23.41589,-23.03232 34.78536,-29.3158 19.29497,-10.663604 48.17591,-16.500814 82.56586,-16.687634 l 7.10938,-0.0386 0.0911,5.17707 c 0.0501,2.84739 0.13431,25.172204 0.18709,49.610704 l 0.0959,44.43363 -133.02004,-0.0654 C 66.768287,189.35482 7.6670203,189.27407 8.5931093,189.21138 Z"
       id="path3728-7"
       inkscape:connector-curvature="0"
       inkscape:export-xdpi="96"
       inkscape:export-ydpi="96" />
  </g>
  <g
     inkscape:groupmode="layer"
     id="layer2"
     inkscape:label="Layer 2">
    <path
       transform="translate(0,-87.000001)"
       style="fill:#2a2aff;stroke-width:0.37417734"
       d="m 20.698343,189.08397 c 0.926089,-0.0627 4.630444,-0.29265 8.231902,-0.511 27.367767,-1.65924 51.554125,-5.77413 70.641651,-12.01846 14.610594,-4.77973 26.801934,-11.00152 38.056864,-19.42212 6.92065,-5.17782 11.82751,-9.73537 22.59109,-20.98287 16.31237,-17.04574 23.41589,-23.03232 34.78537,-29.3158 19.29496,-10.663604 48.1759,-16.500814 82.56585,-16.687634 l 7.10938,-0.0386 0.0911,5.17707 c 0.0501,2.84739 0.13431,25.172204 0.18709,49.610704 l 0.0959,44.43362 -133.02004,-0.0654 c -73.161027,-0.036 -132.262336,-0.11674 -131.336247,-0.17944 z"
       id="path3728"
       inkscape:connector-curvature="0"
       inkscape:export-xdpi="96"
       inkscape:export-ydpi="96" />
  </g>
</svg>
